<svg width="32" height="8" viewBox="0 0 32 8" fill="none" xmlns="http://www.w3.org/2000/svg">
<path d="M0.998768 3.50001C0.722626 3.50068 0.499314 3.72508 0.499987 4.00122C0.50066 4.27736 0.725062 4.50068 1.0012 4.5L0.998768 3.50001ZM31.3695 4.27958C31.5643 4.08385 31.5635 3.76727 31.3678 3.57248L28.1781 0.39826C27.9823 0.203474 27.6658 0.204245 27.471 0.399982C27.2762 0.595719 27.277 0.912301 27.4727 1.10709L30.308 3.92862L27.4865 6.76392C27.2917 6.95966 27.2925 7.27624 27.4882 7.47103C27.6839 7.66581 28.0005 7.66504 28.1953 7.46931L31.3695 4.27958ZM1.0012 4.5L31.0163 4.42689L31.0139 3.42689L0.998768 3.50001L1.0012 4.5Z" fill="black"/>
</svg>
