<svg width="24" height="26" viewBox="0 0 24 26" fill="none" xmlns="http://www.w3.org/2000/svg">
<path fill-rule="evenodd" clip-rule="evenodd" d="M12.0875 1.11824C12.3628 1.5781 12.3154 2.16208 11.9696 2.57156C10.4757 4.34051 9.5764 6.62416 9.5764 9.12109C9.5764 14.731 14.1241 19.2787 19.734 19.2787C20.463 19.2787 21.1728 19.2021 21.8561 19.057C22.3804 18.9456 22.9174 19.1797 23.1927 19.6396C23.468 20.0994 23.4206 20.6834 23.0748 21.0929C20.7534 23.8418 17.2774 25.5909 13.3941 25.5909C6.39897 25.5909 0.728271 19.9202 0.728271 12.925C0.728271 6.83526 5.02475 1.7519 10.7509 0.535624C11.2752 0.424265 11.8122 0.658372 12.0875 1.11824ZM8.01581 4.30615C5.14555 6.1013 3.23653 9.29101 3.23653 12.925C3.23653 18.5349 7.78424 23.0826 13.3941 23.0826C15.2438 23.0826 16.9776 22.5888 18.4715 21.7248C12.0691 21.0912 7.06814 15.6902 7.06814 9.12109C7.06814 7.41712 7.40511 5.79087 8.01581 4.30615Z" fill="white"/>
</svg>
