<svg width="62" height="62" viewBox="0 0 62 62" fill="none" xmlns="http://www.w3.org/2000/svg">
<g filter="url(#filter0_d_4724_349)">
<circle cx="31" cy="27" r="27" fill="#4857EC" fill-opacity="0.1"/>
<path d="M35.0802 31.4233C33.8825 32.532 32.2582 33.1548 30.5646 33.1548C28.8709 33.1548 27.2467 32.532 26.0489 31.4233M25.7742 24.285H25.7902M35.3549 24.285H35.3709M44.9355 27.242C44.9355 28.9895 44.5638 30.7198 43.8416 32.3342C43.1194 33.9487 42.0608 35.4156 40.7264 36.6512C39.3919 37.8869 37.8077 38.867 36.0641 39.5357C34.3205 40.2045 32.4518 40.5486 30.5646 40.5486C28.6773 40.5486 26.8086 40.2045 25.065 39.5357C23.3215 38.867 21.7372 37.8869 20.4028 36.6512C19.0683 35.4156 18.0097 33.9487 17.2875 32.3342C16.5653 30.7198 16.1936 28.9895 16.1936 27.242C16.1936 23.7129 17.7077 20.3283 20.4028 17.8328C23.0978 15.3374 26.7532 13.9354 30.5646 13.9354C34.376 13.9354 38.0313 15.3374 40.7264 17.8328C43.4215 20.3283 44.9355 23.7129 44.9355 27.242Z" stroke="#4857EC" stroke-width="3" stroke-linecap="round" stroke-linejoin="round"/>
</g>
<defs>
<filter id="filter0_d_4724_349" x="0" y="0" width="62" height="62" filterUnits="userSpaceOnUse" color-interpolation-filters="sRGB">
<feFlood flood-opacity="0" result="BackgroundImageFix"/>
<feColorMatrix in="SourceAlpha" type="matrix" values="0 0 0 0 0 0 0 0 0 0 0 0 0 0 0 0 0 0 127 0" result="hardAlpha"/>
<feOffset dy="4"/>
<feGaussianBlur stdDeviation="2"/>
<feComposite in2="hardAlpha" operator="out"/>
<feColorMatrix type="matrix" values="0 0 0 0 0 0 0 0 0 0 0 0 0 0 0 0 0 0 0.25 0"/>
<feBlend mode="normal" in2="BackgroundImageFix" result="effect1_dropShadow_4724_349"/>
<feBlend mode="normal" in="SourceGraphic" in2="effect1_dropShadow_4724_349" result="shape"/>
</filter>
</defs>
</svg>
