<svg width="26" height="26" viewBox="0 0 26 26" fill="none" xmlns="http://www.w3.org/2000/svg">
<path fill-rule="evenodd" clip-rule="evenodd" d="M3.09415 11.7954H8.0646C8.22543 8.61013 8.99523 5.65994 10.233 3.41726C6.45111 4.52127 3.59336 7.79212 3.09415 11.7954ZM13.0496 3.6498C11.7535 5.42907 10.7695 8.3238 10.576 11.7954H15.5231C15.3296 8.3238 14.3457 5.42907 13.0496 3.6498ZM15.5231 14.3037H10.576C10.7695 17.7753 11.7535 20.67 13.0496 22.4493C14.3457 20.67 15.3296 17.7753 15.5231 14.3037ZM10.233 22.6819C8.99523 20.4392 8.22543 17.489 8.0646 14.3037H3.09415C3.59336 18.307 6.4511 21.5778 10.233 22.6819ZM15.8661 22.6819C17.1039 20.4392 17.8737 17.489 18.0346 14.3037H23.005C22.5058 18.307 19.648 21.5778 15.8661 22.6819ZM23.005 11.7954H18.0346C17.8737 8.61013 17.1039 5.65994 15.8661 3.41726C19.648 4.52127 22.5058 7.79212 23.005 11.7954ZM0.50827 13.0496C0.50827 6.12319 6.1232 0.508259 13.0496 0.508259C19.9759 0.508259 25.5909 6.12319 25.5909 13.0496C25.5909 19.9759 19.9759 25.5909 13.0496 25.5909C6.1232 25.5909 0.50827 19.9759 0.50827 13.0496Z" fill="white"/>
</svg>
