<svg width="31" height="31" viewBox="0 0 31 31" fill="none" xmlns="http://www.w3.org/2000/svg">
<path fill-rule="evenodd" clip-rule="evenodd" d="M15.0496 8.82614C10.8291 8.82614 7.11363 11.1948 5.0894 14.7732C4.99228 14.9448 4.99228 15.1543 5.0894 15.326C7.11363 18.9043 10.8291 21.273 15.0496 21.273C19.2701 21.273 22.9856 18.9043 25.0098 15.326C25.1069 15.1543 25.1069 14.9448 25.0098 14.7732C22.9856 11.1948 19.2701 8.82614 15.0496 8.82614ZM2.90624 13.5382C5.33961 9.23659 9.85435 6.31788 15.0496 6.31788C20.2449 6.31788 24.7596 9.23659 27.193 13.5382C27.7236 14.4761 27.7236 15.623 27.193 16.5609C24.7596 20.8625 20.2449 23.7812 15.0496 23.7812C9.85435 23.7812 5.33961 20.8625 2.90624 16.5609C2.37565 15.623 2.37565 14.4761 2.90624 13.5382ZM15.0496 12.0308C13.3824 12.0308 12.0308 13.3823 12.0308 15.0496C12.0308 16.7168 13.3824 18.0683 15.0496 18.0683C16.7168 18.0683 18.0684 16.7168 18.0684 15.0496C18.0684 13.3823 16.7168 12.0308 15.0496 12.0308ZM9.52258 15.0496C9.52258 11.9971 11.9971 9.52254 15.0496 9.52254C18.1021 9.52254 20.5766 11.9971 20.5766 15.0496C20.5766 18.102 18.1021 20.5766 15.0496 20.5766C11.9971 20.5766 9.52258 18.102 9.52258 15.0496Z" fill="white"/>
</svg>
