<svg width="26" height="24" viewBox="0 0 26 24" fill="none" xmlns="http://www.w3.org/2000/svg">
<path fill-rule="evenodd" clip-rule="evenodd" d="M12.5413 0.854477C13.2339 0.854477 13.7954 1.35756 13.7954 1.97814V4.22548C13.7954 4.84606 13.2339 5.34915 12.5413 5.34915C11.8487 5.34915 11.2872 4.84606 11.2872 4.22548V1.97814C11.2872 1.35756 11.8487 0.854477 12.5413 0.854477ZM21.4093 4.14562C21.8991 4.58444 21.8991 5.29591 21.4093 5.73473L19.6357 7.32383C19.146 7.76265 18.3519 7.76265 17.8621 7.32383C17.3724 6.88501 17.3724 6.17355 17.8621 5.73473L19.6357 4.14562C20.1255 3.7068 20.9196 3.7068 21.4093 4.14562ZM3.67326 4.14562C4.16303 3.7068 4.9571 3.7068 5.44687 4.14562L7.22048 5.73473C7.71025 6.17355 7.71025 6.88501 7.22048 7.32383C6.73071 7.76265 5.93664 7.76265 5.44687 7.32383L3.67326 5.73473C3.18349 5.29591 3.18349 4.58444 3.67326 4.14562ZM12.5413 9.28198C10.8097 9.28198 9.40598 10.5397 9.40598 12.0911C9.40598 13.6426 10.8097 14.9003 12.5413 14.9003C14.2729 14.9003 15.6766 13.6426 15.6766 12.0911C15.6766 10.5397 14.2729 9.28198 12.5413 9.28198ZM6.89772 12.0911C6.89772 9.29852 9.42444 7.03465 12.5413 7.03465C15.6582 7.03465 18.1849 9.29852 18.1849 12.0911C18.1849 14.8838 15.6582 17.1477 12.5413 17.1477C9.42444 17.1477 6.89772 14.8838 6.89772 12.0911ZM0 12.0911C0 11.4706 0.561493 10.9675 1.25413 10.9675H3.76239C4.45503 10.9675 5.01652 11.4706 5.01652 12.0911C5.01652 12.7117 4.45503 13.2148 3.76239 13.2148H1.25413C0.561493 13.2148 0 12.7117 0 12.0911ZM20.0661 12.0911C20.0661 11.4706 20.6276 10.9675 21.3202 10.9675H23.8285C24.5211 10.9675 25.0826 11.4706 25.0826 12.0911C25.0826 12.7117 24.5211 13.2148 23.8285 13.2148H21.3202C20.6276 13.2148 20.0661 12.7117 20.0661 12.0911ZM7.22048 16.8585C7.71025 17.2973 7.71025 18.0088 7.22048 18.4476L5.44687 20.0367C4.9571 20.4755 4.16303 20.4755 3.67326 20.0367C3.18349 19.5979 3.18349 18.8864 3.67326 18.4476L5.44687 16.8585C5.93664 16.4196 6.73071 16.4196 7.22048 16.8585ZM17.8621 16.8585C18.3519 16.4196 19.146 16.4196 19.6357 16.8585L21.4093 18.4476C21.8991 18.8864 21.8991 19.5979 21.4093 20.0367C20.9196 20.4755 20.1255 20.4755 19.6357 20.0367L17.8621 18.4476C17.3724 18.0088 17.3724 17.2973 17.8621 16.8585ZM12.5413 18.8332C13.2339 18.8332 13.7954 19.3362 13.7954 19.9568V22.2042C13.7954 22.8247 13.2339 23.3278 12.5413 23.3278C11.8487 23.3278 11.2872 22.8247 11.2872 22.2042V19.9568C11.2872 19.3362 11.8487 18.8332 12.5413 18.8332Z" fill="white"/>
</svg>
