<svg width="100" height="100" viewBox="0 0 100 100" fill="none" xmlns="http://www.w3.org/2000/svg">
<path d="M17.2222 1L21 4.77778L17.2222 8.55556" stroke="black" stroke-width="2" stroke-linecap="round" stroke-linejoin="round"/>
<path d="M4 10.4443V8.55537C4 7.55344 4.39801 6.59254 5.10649 5.88407C5.81496 5.1756 6.77585 4.77759 7.77778 4.77759H21" stroke="black" stroke-width="2" stroke-linecap="round" stroke-linejoin="round"/>
<path d="M7.77778 21.778L4 18.0002L7.77778 14.2224" stroke="black" stroke-width="2" stroke-linecap="round" stroke-linejoin="round"/>
<path d="M21 12.3333V14.2221C21 15.2241 20.602 16.185 19.8935 16.8934C19.185 17.6019 18.2242 17.9999 17.2222 17.9999H4" stroke="black" stroke-width="2" stroke-linecap="round" stroke-linejoin="round"/>
<path d="M44 20L34 12L44 4L44 20Z" fill="black" stroke="black" stroke-width="2" stroke-linecap="round" stroke-linejoin="round"/>
<path d="M30 19L30 5" stroke="black" stroke-width="2" stroke-linecap="round" stroke-linejoin="round"/>
<path d="M54 4L64 12L54 20V4Z" fill="black" stroke="black" stroke-width="2" stroke-linecap="round" stroke-linejoin="round"/>
<path d="M68 5V19" stroke="black" stroke-width="2" stroke-linecap="round" stroke-linejoin="round"/>
<path d="M74 20.15L76.347 14.45M87.3 20.15L84.953 14.45M84.953 14.45L83.975 12.075L80.65 4L77.325 12.075L76.347 14.45M84.953 14.45H76.3465M85.4 4.95H93M87.3 9.7H93M89.2 14.45H93M91.1 19.2H93" stroke="black" stroke-width="2" stroke-linecap="round" stroke-linejoin="round"/>
<path d="M17.2222 26L21 29.7778L17.2222 33.5556" stroke="black" stroke-width="2" stroke-linecap="round" stroke-linejoin="round"/>
<path d="M4 35.4443V33.5554C4 32.5534 4.39801 31.5925 5.10649 30.8841C5.81496 30.1756 6.77585 29.7776 7.77778 29.7776H21" stroke="black" stroke-width="2" stroke-linecap="round" stroke-linejoin="round"/>
<path d="M7.77778 46.778L4 43.0002L7.77778 39.2224" stroke="black" stroke-width="2" stroke-linecap="round" stroke-linejoin="round"/>
<path d="M21 37.3333V39.2221C21 40.2241 20.602 41.185 19.8935 41.8934C19.185 42.6019 18.2242 42.9999 17.2222 42.9999H4" stroke="black" stroke-width="2" stroke-linecap="round" stroke-linejoin="round"/>
<path d="M11.61 33.1289H9.95V32.2089H12.66V40.2189H11.61V33.1289Z" fill="black"/>
<path d="M18 66.9999L21 63.9999L18 60.9999" stroke="black" stroke-width="2" stroke-linecap="round" stroke-linejoin="round"/>
<path d="M18 51L21 54L18 57" stroke="black" stroke-width="2" stroke-linecap="round" stroke-linejoin="round"/>
<path d="M21 54H17C15.8744 54 14.8357 54.3719 14 54.9996M3 64H7C8.12561 64 9.16434 63.6281 10 63.0004" stroke="black" stroke-width="2" stroke-linecap="round" stroke-linejoin="round"/>
<path d="M3 54H7C9.76142 54 12 56.2386 12 59C12 61.7614 14.2386 64 17 64H21" stroke="black" stroke-width="2" stroke-linecap="round" stroke-linejoin="round"/>
</svg>
