<svg width="100" height="100" viewBox="0 0 100 100" fill="none" xmlns="http://www.w3.org/2000/svg">
<rect width="100" height="100" fill="white"/>
<path d="M43 20L33 12L43 4L43 20Z" fill="#F4EFEF" stroke="#F4EFEF" stroke-width="2" stroke-linecap="round" stroke-linejoin="round"/>
<path d="M29 19L29 5" stroke="#F4EFEF" stroke-width="2" stroke-linecap="round" stroke-linejoin="round"/>
<path d="M53 4L63 12L53 20V4Z" fill="#F4EFEF" stroke="#F4EFEF" stroke-width="2" stroke-linecap="round" stroke-linejoin="round"/>
<path d="M67 5V19" stroke="#F4EFEF" stroke-width="2" stroke-linecap="round" stroke-linejoin="round"/>
<path d="M18 67.9999L21 64.9999L18 61.9999" stroke="#ABABAB" stroke-width="2" stroke-linecap="round" stroke-linejoin="round"/>
<path d="M18 52L21 55L18 58" stroke="#ABABAB" stroke-width="2" stroke-linecap="round" stroke-linejoin="round"/>
<path d="M21 55H17C15.8744 55 14.8357 55.3719 14 55.9996M3 65H7C8.12561 65 9.16434 64.6281 10 64.0004" stroke="#ABABAB" stroke-width="2" stroke-linecap="round" stroke-linejoin="round"/>
<path d="M3 55H7C9.76142 55 12 57.2386 12 60C12 62.7614 14.2386 65 17 65H21" stroke="#ABABAB" stroke-width="2" stroke-linecap="round" stroke-linejoin="round"/>
<path d="M16.7222 1.61108L20.4999 5.38886L16.7222 9.16664" stroke="#ABABAB" stroke-width="2" stroke-linecap="round" stroke-linejoin="round"/>
<path d="M3.5 11.0553V9.16645C3.5 8.16452 3.89801 7.20363 4.60649 6.49516C5.31496 5.78669 6.27585 5.38867 7.27778 5.38867H20.5" stroke="#ABABAB" stroke-width="2" stroke-linecap="round" stroke-linejoin="round"/>
<path d="M7.27778 22.3891L3.5 18.6113L7.27778 14.8335" stroke="#ABABAB" stroke-width="2" stroke-linecap="round" stroke-linejoin="round"/>
<path d="M20.5 12.9443V14.8332C20.5 15.8352 20.102 16.796 19.3935 17.5045C18.685 18.213 17.7242 18.611 16.7222 18.611H3.5" stroke="#ABABAB" stroke-width="2" stroke-linecap="round" stroke-linejoin="round"/>
<path d="M16.7222 25.6111L20.4999 29.3889L16.7222 33.1666" stroke="#ABABAB" stroke-width="2" stroke-linecap="round" stroke-linejoin="round"/>
<path d="M3.5 35.0553V33.1664C3.5 32.1645 3.89801 31.2036 4.60649 30.4952C5.31496 29.7867 6.27585 29.3887 7.27778 29.3887H20.5" stroke="#ABABAB" stroke-width="2" stroke-linecap="round" stroke-linejoin="round"/>
<path d="M7.27778 46.3891L3.5 42.6113L7.27778 38.8335" stroke="#ABABAB" stroke-width="2" stroke-linecap="round" stroke-linejoin="round"/>
<path d="M20.5 36.9443V38.8332C20.5 39.8352 20.102 40.796 19.3935 41.5045C18.685 42.213 17.7242 42.611 16.7222 42.611H3.5" stroke="#ABABAB" stroke-width="2" stroke-linecap="round" stroke-linejoin="round"/>
<path d="M12.9716 31.2727V40H11.9148V32.3807H11.8636L9.73295 33.7955V32.7216L11.9148 31.2727H12.9716Z" fill="#ABABAB"/>
<path d="M75 20.15L77.2234 14.45M77.2234 14.45L78.15 12.075L81.3 4L84.45 12.075L85.3766 14.45M77.2234 14.45H85.3766M87.6 20.15L85.3766 14.45M85.8 4.95H93M87.6 9.7H93M89.4 14.45H93M91.2 19.2H93" stroke="#ABABAB" stroke-width="2" stroke-linecap="round" stroke-linejoin="round"/>
</svg>
